<?xml version="1.0" encoding="UTF-8" standalone="no"?>
<!-- Created with Inkscape (http://www.inkscape.org/) -->

<svg
   xmlns:dc="http://purl.org/dc/elements/1.1/"
   xmlns:cc="http://creativecommons.org/ns#"
   xmlns:rdf="http://www.w3.org/1999/02/22-rdf-syntax-ns#"
   xmlns:svg="http://www.w3.org/2000/svg"
   xmlns="http://www.w3.org/2000/svg"
   xmlns:sodipodi="http://sodipodi.sourceforge.net/DTD/sodipodi-0.dtd"

   width="175.75948mm"
   height="31.58145mm"
   viewBox="0 0 175.75948 31.58145"
   version="1.1"
   id="svg3739"
   inkscape:version="0.92.5 (2060ec1f9f, 2020-04-08)"
   sodipodi:docname="logo1.svg">
  <defs
     id="defs3733" />
  <sodipodi:namedview
     id="base"
     pagecolor="#ffffff"
     bordercolor="#666666"
     borderopacity="1.0"
     inkscape:pageopacity="0"
     inkscape:pageshadow="2"
     inkscape:zoom="1.979899"
     inkscape:cx="217.81299"
     inkscape:cy="46.547101"
     inkscape:document-units="mm"
     inkscape:current-layer="layer1"
     showgrid="false"
     inkscape:window-width="1848"
     inkscape:window-height="1016"
     inkscape:window-x="72"
     inkscape:window-y="27"
     inkscape:window-maximized="1" />
  <metadata
     id="metadata3736">
    <rdf:RDF>
      <cc:Work
         rdf:about="">
        <dc:format>image/svg+xml</dc:format>
        <dc:type
           rdf:resource="http://purl.org/dc/dcmitype/StillImage" />
        <dc:title></dc:title>
      </cc:Work>
    </rdf:RDF>
  </metadata>
  <g
     inkscape:label="Layer 1"
     inkscape:groupmode="layer"
     id="layer1"
     transform="translate(-8.5407116,-79.996258)">
    <g
       transform="scale(0.26458333)"
       style="font-style:italic;font-variant:normal;font-weight:normal;font-stretch:normal;font-size:40px;line-height:1.25;font-family:'Arial Black';-inkscape-font-specification:'Arial Black,  Italic';letter-spacing:0px;word-spacing:0px;fill:#000000;fill-opacity:1;stroke:none"
       id="flowRoot3797" />
    <g
       style="font-style:italic;font-variant:normal;font-weight:normal;font-stretch:normal;font-size:40px;line-height:0.25;font-family:'Arial Black';-inkscape-font-specification:'Arial Black,  Italic';letter-spacing:0px;word-spacing:0px;fill:#000000;fill-opacity:1;stroke:none"
       id="flowRoot3835" />
    <g
       aria-label="I"
       style="font-style:italic;font-variant:normal;font-weight:normal;font-stretch:normal;font-size:10.58333302px;line-height:0.25;font-family:'Arial Black';-inkscape-font-specification:'Arial Black,  Italic';letter-spacing:0px;word-spacing:0px;fill:#000000;fill-opacity:1;stroke:none;stroke-width:0.26458332"
       id="text3853">
      <path
         d="M 80.090616,86.580822 76.19628,104.76266 H 70.503604 L 74.39794,86.580822 Z"
         style="font-style:italic;font-variant:normal;font-weight:normal;font-stretch:normal;font-size:25.39999962px;font-family:'Arial Black';-inkscape-font-specification:'Arial Black, Italic';fill:#ff0000;stroke-width:0.26458332"
         id="path100" />
    </g>
    <g
       aria-label="ech GmbH"
       style="font-style:italic;font-variant:normal;font-weight:normal;font-stretch:normal;font-size:10.58333302px;line-height:0.25;font-family:'Arial Black';-inkscape-font-specification:'Arial Black,  Italic';letter-spacing:0px;word-spacing:0px;fill:#000000;fill-opacity:1;stroke:none;stroke-width:0.26458332"
       id="text3857">
      <path
         d="m 89.14208,102.09286 q -0.827856,1.46968 -2.167309,2.1208 -1.330152,0.64182 -3.339331,0.64182 -2.920752,0 -4.157886,-1.31154 -1.227832,-1.32085 -1.227832,-3.22771 0,-1.320853 0.576709,-2.483573 0.576709,-1.172021 1.562695,-1.962671 0.985987,-0.790649 1.944068,-1.0604 0.958081,-0.279053 2.241723,-0.279053 2.762622,0 3.962549,1.199927 1.199927,1.199927 1.199927,2.948657 0,0.576709 -0.251148,1.981273 h -7.525122 q 0.15813,1.98128 1.776636,1.98128 1.097608,0 1.748731,-0.89297 z m -3.162597,-3.264915 q 0.06511,-0.204638 0.06511,-0.567407 0,-0.753442 -0.455786,-1.134814 -0.446484,-0.390674 -1.106909,-0.390674 -0.697632,0 -1.283643,0.5302 -0.586011,0.520898 -0.892969,1.562695 z"
         style="font-style:italic;font-variant:normal;font-weight:normal;font-stretch:normal;font-size:19.04999924px;font-family:'Arial Black';-inkscape-font-specification:'Arial Black, Italic';letter-spacing:-1.05833328px;fill:#ffffff"
         id="path103" />
      <path
         d="m 101.64571,98.186124 -3.423048,0.186035 q -0.241845,-1.292944 -1.739428,-1.292944 -1.385962,0 -2.130103,1.125512 -0.74414,1.116211 -0.74414,2.437063 0,0.79995 0.5302,1.22783 0.5302,0.42788 1.144116,0.42788 1.516186,0 2.251025,-1.67432 l 3.543968,0.38138 q -1.311546,3.85092 -5.943821,3.85092 -5.218286,0 -5.218286,-4.2695 0,-2.483572 1.720825,-4.269509 1.720825,-1.785938 4.846216,-1.785938 2.241723,0 3.581176,0.920874 1.33945,0.911572 1.5813,2.734717 z"
         style="font-style:italic;font-variant:normal;font-weight:normal;font-stretch:normal;font-size:19.04999924px;font-family:'Arial Black';-inkscape-font-specification:'Arial Black, Italic';letter-spacing:-1.05833328px;fill:#ffffff"
         id="path105" />
      <path
         d="m 106.48469,95.953702 q 1.37666,-1.423169 3.50676,-1.423169 1.33015,0 1.99058,0.68833 0.66973,0.68833 0.66973,1.674317 0,0.595312 -0.37208,2.344043 l -1.14411,5.385717 h -3.79512 l 0.97669,-4.58577 q 0.35346,-1.683614 0.35346,-1.92546 0,-0.818555 -0.74414,-0.818555 -0.83716,0 -1.46037,0.79065 -0.62322,0.781347 -0.93948,2.260325 l -0.93018,4.27881 h -3.81372 l 2.93936,-13.636376 h 3.78581 l -1.0604,4.929931 z"
         style="font-style:italic;font-variant:normal;font-weight:normal;font-stretch:normal;font-size:19.04999924px;font-family:'Arial Black';-inkscape-font-specification:'Arial Black, Italic';letter-spacing:-1.05833328px;fill:#ffffff"
         id="path107" />
      <path
         d="m 135.23489,91.699698 -5.53144,0.607715 q -0.75654,-2.158008 -3.07578,-2.158008 -2.26963,0 -3.59668,2.294434 -1.32705,2.294433 -1.32705,4.911328 0,1.513086 0.97978,2.54248 0.99219,1.016993 2.51768,1.016993 h 0.0496 q 1.73633,0 3.05097,-0.89297 l 0.40928,-1.947167 h -3.43545 l 0.81856,-3.795117 h 8.4832 l -1.82314,8.545214 q -4.24161,2.1084 -8.40879,2.1084 -3.75791,0 -5.96553,-2.03399 -2.19522,-2.03398 -2.19522,-5.717476 0,-3.075781 1.40147,-5.643066 1.40146,-2.567286 3.94394,-3.981153 2.55489,-1.426269 5.85391,-1.426269 6.44922,0 7.85068,5.568652 z"
         style="font-style:italic;font-variant:normal;font-weight:normal;font-stretch:normal;font-size:25.39999962px;font-family:'Arial Black';-inkscape-font-specification:'Arial Black, Italic';letter-spacing:-1.05833328px;fill:#ffffff"
         id="path109" />
      <path
         d="m 146.30295,96.20485 q 1.0697,-0.967383 1.95337,-1.32085 0.88367,-0.353467 1.87895,-0.353467 1.33946,0 2.00918,0.716236 0.66973,0.706933 0.66973,1.720825 0,0.604614 -0.12092,1.172021 l -1.40457,6.483325 h -3.80442 l 0.91158,-4.2137 q 0.34416,-1.6092 0.38137,-1.916158 0.0372,-0.306958 0.0372,-0.427881 0,-0.772046 -0.72554,-0.772046 -0.84646,0 -1.40457,0.706934 -0.5488,0.706933 -0.87436,2.232421 l -0.93948,4.39043 h -3.80442 l 0.89297,-4.13928 q 0.35347,-1.665017 0.39067,-1.971975 0.0465,-0.306958 0.0465,-0.465087 0,-0.753443 -0.76274,-0.753443 -0.57671,0 -1.21853,0.595313 -0.63252,0.58601 -0.93948,1.999878 l -1.02319,4.734594 h -3.81372 l 2.1208,-9.869165 h 3.52536 l -0.30695,1.413868 0.0372,0.03721 q 1.62781,-1.674317 3.65559,-1.674317 0.93018,0 1.64641,0.437183 0.71624,0.437182 0.98599,1.237134 z"
         style="font-style:italic;font-variant:normal;font-weight:normal;font-stretch:normal;font-size:19.04999924px;font-family:'Arial Black';-inkscape-font-specification:'Arial Black, Italic';letter-spacing:-1.05833328px;fill:#ffffff"
         id="path111" />
      <path
         d="m 158.3508,95.460709 q 0.65112,-0.502295 1.23713,-0.716235 0.59531,-0.213941 1.48828,-0.213941 1.70222,0 2.56729,1.153418 0.87436,1.153418 0.87436,2.976563 0,2.344046 -1.30224,4.269506 -1.30225,1.92546 -3.44165,1.92546 -2.20452,0 -3.27422,-1.85105 l -0.36277,1.61851 h -3.52537 l 2.90215,-13.636376 h 3.78582 z m 0.45578,6.836791 q 0.81856,0 1.41387,-1.02319 0.60461,-1.0325 0.60461,-2.595193 0,-1.674316 -1.33015,-1.674316 -0.96738,0 -1.55339,1.116211 -0.58601,1.106909 -0.58601,2.446358 0,0.85577 0.43718,1.29295 0.44649,0.43718 1.01389,0.43718 z"
         style="font-style:italic;font-variant:normal;font-weight:normal;font-stretch:normal;font-size:19.04999924px;font-family:'Arial Black';-inkscape-font-specification:'Arial Black, Italic';letter-spacing:-1.05833328px;fill:#ffffff"
         id="path113" />
      <path
         d="m 180.45384,90.986564 -2.93006,13.636376 h -4.2323 l 1.18133,-5.543847 h -4.56717 l -1.16272,5.543847 h -4.2695 l 2.93005,-13.636376 h 4.2323 l -1.03249,4.81831 h 4.55786 l 1.0697,-4.81831 z"
         style="font-style:italic;font-variant:normal;font-weight:normal;font-stretch:normal;font-size:19.04999924px;font-family:'Arial Black';-inkscape-font-specification:'Arial Black, Italic';letter-spacing:-1.05833328px;fill:#ffffff"
         id="path115" />
    </g>
    <path
       style="fill:#ff0000;stroke-width:0.29542208"
       d="m 49.216381,85.708641 h 54.456169 v 4.409947 H 49.216381 Z"
       id="rect35" />
    <g
       aria-label="Explo"
       style="font-style:italic;font-variant:normal;font-weight:normal;font-stretch:normal;font-size:10.58333302px;line-height:0.25;font-family:'Arial Black';-inkscape-font-specification:'Arial Black, Italic';letter-spacing:0px;word-spacing:0px;fill:#000000;fill-opacity:1;stroke:none;stroke-width:0.26458332"
       id="text3857-0">
      <path
         d="m 31.779378,86.433254 -0.830957,3.906738 h -9.227344 l -0.607714,2.889746 h 8.89248 l -0.818555,3.683496 H 20.30721 l -0.768945,3.559476 h 10.008691 l -0.892969,4.14238 H 13.039437 L 16.92137,86.433254 Z"
         style="font-style:italic;font-variant:normal;font-weight:normal;font-stretch:normal;font-size:25.39999962px;font-family:'Arial Black';-inkscape-font-specification:'Arial Black, Italic';letter-spacing:-1.05833328px;fill:#ffffff;stroke-width:0.26458332"
         id="path119" />
      <path
         d="m 43.045873,94.745925 -4.557861,4.97644 2.557983,4.892725 h -4.027661 l -1.255737,-2.85564 -2.474267,2.85564 h -4.399732 l 4.892725,-5.376416 -2.344043,-4.492749 h 4.027661 l 1.041797,2.43706 2.111499,-2.43706 z"
         style="font-size:19.04999924px;fill:#ffffff;stroke-width:0.26458332"
         id="path121" />
      <path
         d="m 46.936075,95.77842 q 0.809253,-0.744141 1.451074,-0.995288 0.641821,-0.260449 1.544092,-0.260449 1.665014,0 2.548681,1.106909 0.892969,1.106909 0.892969,2.985864 0,2.511474 -1.339453,4.381124 -1.330151,1.86966 -3.367236,1.86966 -2.074292,0 -3.134693,-1.5627 l -1.088305,5.08806 h -3.795117 l 2.939355,-13.645675 h 3.497461 l -0.186035,0.995288 z m 0.725537,6.52983 q 0.827856,0 1.423169,-1.0511 0.595312,-1.05109 0.595312,-2.548677 0,-0.911572 -0.381372,-1.311547 -0.381372,-0.399976 -0.911572,-0.399976 -1.051099,0 -1.618506,1.181323 -0.558105,1.172022 -0.558105,2.399857 0,0.87436 0.437182,1.30224 0.446485,0.42788 1.013892,0.42788 z"
         style="font-size:19.04999924px;fill:#ffffff;stroke-width:0.26458332"
         id="path123" />
      <path
         d="M 59.979206,90.978713 57.077057,104.61509 H 53.272638 L 56.184089,90.978713 Z"
         style="font-size:19.04999924px;fill:#ffffff;stroke-width:0.26458332"
         id="path125" />
      <path
         d="m 65.246067,94.522683 q 2.651001,0 3.86023,1.339453 1.21853,1.339453 1.21853,3.134692 0,1.367362 -0.697632,2.781222 -0.697632,1.41387 -2.102197,2.24173 -1.395264,0.82785 -3.44165,0.82785 -2.595191,0 -3.832324,-1.27434 -1.237134,-1.28364 -1.237134,-3.1905 0,-1.497583 0.734839,-2.892847 0.74414,-1.395263 2.148706,-2.176611 1.404565,-0.790649 3.348632,-0.790649 z m -0.920874,7.766967 q 1.060401,0 1.683618,-1.079 0.623218,-1.08831 0.623218,-2.409159 0,-0.958081 -0.474389,-1.339453 -0.47439,-0.390674 -1.051099,-0.390674 -1.199927,0 -1.804541,1.088306 -0.595312,1.088305 -0.595312,2.22312 0,0.81855 0.465087,1.36736 0.47439,0.5395 1.153418,0.5395 z"
         style="font-size:19.04999924px;fill:#ffffff;stroke-width:0.26458332"
         id="path127" />
    </g>
  </g>
</svg>
